<svg width="13" height="13" viewBox="0 0 13 13" fill="none" xmlns="http://www.w3.org/2000/svg">
<path d="M11.9569 8.53299C11.1609 8.53299 10.3795 8.40851 9.6389 8.16378C9.27602 8.04 8.82992 8.15355 8.60845 8.38102L7.14673 9.48446C5.45156 8.57957 4.40736 7.53571 3.51483 5.85327L4.58581 4.42964C4.86405 4.15176 4.96385 3.74585 4.84428 3.36499C4.5985 2.62054 4.47365 1.83943 4.47365 1.04318C4.47368 0.467965 4.00572 0 3.43054 0H1.04315C0.467965 0 0 0.467965 0 1.04315C0 7.63623 5.36377 13 11.9569 13C12.532 13 13 12.532 13 11.9568V9.5761C13 9.00095 12.532 8.53299 11.9569 8.53299Z" fill="#96FF1E"/>
</svg>
