<svg width="105" height="62" viewBox="0 0 105 62" fill="none" xmlns="http://www.w3.org/2000/svg">
<path fill-rule="evenodd" clip-rule="evenodd" d="M13.0678 0H91.6055L104.608 12.8494V34.674L91.6055 47.5234H13.0678L0.0653391 34.674L0 12.8494L13.0678 0ZM10.2582 10.1116L5.22713 15.0448L5.29247 32.4786L15.2894 42.3578H89.3839L99.3808 32.4786V15.0448L89.3839 5.16559H15.2894L10.2582 10.1116ZM59.7853 54.5486C60.2688 54.5745 60.8569 54.7165 61.1574 54.8586C61.4449 55.0006 61.8762 55.3235 62.1114 55.5817C62.3335 55.84 62.5296 56.1112 62.5296 56.1887C62.5296 56.2533 62.2682 56.447 61.3535 56.899L60.9353 56.4728C60.7001 56.2404 60.295 55.995 60.0467 55.9304C59.7592 55.8529 59.4063 55.84 59.0666 55.9175C58.7791 55.995 58.4001 56.15 58.2172 56.2791C58.0342 56.4082 57.7598 56.7827 57.5899 57.0927C57.3939 57.4543 57.2894 57.8675 57.2894 58.242C57.3024 58.5907 57.42 59.0685 57.5899 59.4043C57.7598 59.7142 58.0342 60.0887 58.2172 60.2179C58.4001 60.347 58.7791 60.502 59.0666 60.5795C59.4063 60.6569 59.7592 60.644 60.0467 60.5665C60.295 60.502 60.7001 60.2566 61.3535 59.6109L62.6602 60.2566L62.2421 60.7473C62.0068 61.0314 61.5756 61.393 61.2881 61.5609C60.9876 61.7288 60.4256 61.8967 59.9813 61.9483C59.4325 62 58.9751 61.9613 58.4785 61.8321C58.0865 61.7159 57.4984 61.4318 57.1717 61.1864C56.832 60.941 56.4269 60.4632 56.1917 60.05C55.8519 59.4301 55.7996 59.2235 55.7996 58.2549C55.7996 57.2735 55.8519 57.0798 56.1917 56.447C56.4138 56.0596 56.8189 55.5688 57.0933 55.3493C57.3678 55.1298 57.9035 54.8586 58.2694 54.7294C58.7399 54.5615 59.1842 54.5099 59.7853 54.5486ZM67.1033 54.5486C67.5868 54.5745 68.1749 54.7165 68.4754 54.8586C68.7629 55.0006 69.1942 55.3235 69.4294 55.5817C69.6515 55.84 69.8475 56.1112 69.8475 56.1887C69.8475 56.2533 69.5862 56.447 68.6714 56.899L68.2533 56.4728C68.018 56.2404 67.6129 55.995 67.3647 55.9304C67.0772 55.8529 66.7243 55.84 66.3846 55.9175C66.0971 55.995 65.7181 56.15 65.5352 56.2791C65.3522 56.4082 65.0778 56.7827 64.9079 57.0927C64.7119 57.4543 64.6073 57.8675 64.6073 58.242C64.6204 58.5907 64.738 59.0685 64.9079 59.4043C65.0778 59.7142 65.3522 60.0887 65.5352 60.2179C65.7181 60.347 66.0971 60.502 66.3846 60.5795C66.7243 60.6569 67.0772 60.644 67.3647 60.5665C67.6129 60.502 68.018 60.2566 68.6714 59.6109L69.9782 60.2566L69.5601 60.7473C69.3248 61.0314 68.8936 61.393 68.6061 61.5609C68.3055 61.7288 67.7436 61.8967 67.2993 61.9483C66.7505 62 66.2931 61.9613 65.7965 61.8321C65.4045 61.7159 64.8164 61.4318 64.4897 61.1864C64.15 60.941 63.7449 60.4632 63.5096 60.05C63.1699 59.4301 63.1176 59.2235 63.1176 58.2549C63.1176 57.2735 63.1699 57.0798 63.5096 56.447C63.7318 56.0596 64.1369 55.5688 64.4113 55.3493C64.6857 55.1298 65.2215 54.8586 65.5874 54.7294C66.0579 54.5615 66.5022 54.5099 67.1033 54.5486ZM102.125 54.5486C102.609 54.5745 103.197 54.7165 103.497 54.8586C103.785 55.0006 104.216 55.3235 104.451 55.5817C104.673 55.84 104.869 56.1112 104.869 56.1887C104.869 56.2533 104.608 56.447 103.693 56.899L103.275 56.4728C103.04 56.2404 102.635 55.995 102.386 55.9304C102.099 55.8529 101.746 55.84 101.406 55.9175C101.119 55.995 100.74 56.15 100.557 56.2791C100.374 56.4082 100.1 56.7827 99.9297 57.0927C99.7337 57.4543 99.6291 57.8675 99.6291 58.242C99.6422 58.5907 99.7598 59.0685 99.9297 59.4043C100.1 59.7142 100.374 60.0887 100.557 60.2179C100.74 60.347 101.119 60.502 101.406 60.5795C101.746 60.6569 102.099 60.644 102.386 60.5665C102.635 60.502 103.04 60.2566 103.693 59.6109L105 60.2566L104.582 60.7473C104.347 61.0314 103.915 61.393 103.628 61.5609C103.327 61.7288 102.765 61.8967 102.321 61.9483C101.772 62 101.315 61.9613 100.818 61.8321C100.426 61.7159 99.8382 61.4318 99.5115 61.1864C99.1717 60.941 98.7666 60.4632 98.5314 60.05C98.1917 59.4301 98.1394 59.2235 98.1394 58.2549C98.1394 57.2735 98.1917 57.0798 98.5314 56.447C98.7536 56.0596 99.1587 55.5688 99.4331 55.3493C99.7075 55.1298 100.243 54.8586 100.609 54.7294C101.08 54.5615 101.524 54.5099 102.125 54.5486ZM0.196017 54.639H5.55383V55.9304H1.76416V57.351H3.07094C4.05103 57.351 4.49533 57.4026 4.86123 57.5705C5.12259 57.6996 5.44928 57.945 5.57996 58.1258C5.72371 58.2937 5.89359 58.6424 5.972 58.9006C6.0504 59.146 6.07654 59.6238 6.02427 59.9596C5.972 60.4245 5.82825 60.6957 5.46235 61.096C5.17486 61.393 4.76976 61.6771 4.5084 61.7417C4.26011 61.8063 3.18855 61.8579 0.196017 61.8709V54.639ZM1.76416 60.5795C3.90728 60.5149 4.03796 60.4762 4.26011 60.192C4.40386 60.0112 4.52147 59.7271 4.5084 59.5722C4.5084 59.4172 4.36465 59.1331 4.1817 58.9652C3.89421 58.6682 3.75047 58.6424 2.80958 58.6424H1.76416V60.5795ZM9.0168 54.6261L10.977 54.7036L13.7212 61.8579L11.9571 61.8709L11.565 60.5795H8.42875L7.97137 61.8709H6.20722L6.3771 61.4447C6.46857 61.2122 7.1089 59.5851 7.78842 57.8288L9.0168 54.6261ZM8.88612 59.2751C10.5588 59.2751 11.0423 59.2364 11.0423 59.1847C11.0423 59.1331 10.8332 58.4616 10.5849 57.6996C10.3367 56.9377 10.0884 56.3049 10.023 56.3049C9.97075 56.3049 9.68326 56.9765 9.39577 57.79L8.88612 59.2751ZM15.9297 54.639H21.1045V61.8709H19.5364V55.9304H18.4256C17.8245 55.9304 17.3149 55.9692 17.3149 56.0208C17.3149 56.0725 17.2234 56.8473 17.1189 57.7384C17.0143 58.6165 16.8314 59.6497 16.7268 60.0242C16.6092 60.4503 16.3479 60.9023 16.0473 61.2252C15.7598 61.5351 15.3547 61.8063 15.0933 61.8709C14.8451 61.9354 14.5314 62 14.4138 62C14.2178 62 14.1786 61.8838 14.1786 61.3543C14.1786 60.7861 14.2178 60.6957 14.5053 60.5795C14.6882 60.502 14.9235 60.3212 15.028 60.1533C15.1456 59.9983 15.3155 59.4043 15.407 58.8361C15.5115 58.2679 15.6683 57.0927 15.7598 56.2145L15.9297 54.639ZM21.9017 54.639H27.6515V55.9304H25.5607V61.8709H23.9925V55.9304H21.9017V54.639ZM28.1742 54.639H33.9241V55.9304H31.8332V61.8709H30.2651V55.9304H28.1742V54.639ZM34.7082 54.639H36.6945C38.3279 54.6519 38.7853 54.6907 39.2166 54.8844C39.504 55.0135 39.8961 55.2976 40.0921 55.5301C40.3273 55.7884 40.4841 56.15 40.5364 56.5503C40.5756 56.8861 40.5495 57.3639 40.4711 57.6092C40.4057 57.8546 40.1966 58.2291 40.0398 58.4487C39.8699 58.6553 39.504 58.9265 39.2166 59.0556C38.8376 59.2235 38.3541 59.2881 36.2763 59.2881V61.8709H34.7082V54.639ZM36.2763 57.9967C37.5831 57.9967 38.1711 57.9063 38.4325 57.803C38.7461 57.6738 38.9029 57.5059 38.9683 57.2606C39.0075 57.0669 39.0075 56.7698 38.9683 56.6149C38.916 56.447 38.6938 56.2404 38.4325 56.1241C38.1711 56.0208 37.5831 55.9304 37.1257 55.9304H36.2763V57.9967ZM42.9932 54.6261L44.9533 54.7036L47.7106 61.8709H45.9465L45.5545 60.5795H42.4182L41.9608 61.8838L40.1966 61.8709L40.3665 61.4576C40.458 61.2252 41.0853 59.598 41.7648 57.8288L42.9932 54.6261ZM42.8625 59.2751C44.5352 59.2881 45.0187 59.2493 45.0187 59.1977C45.0187 59.1331 44.8226 58.4745 44.5744 57.7126C44.3261 56.9377 44.0647 56.3178 44.0124 56.3178C43.9471 56.3178 43.6727 56.9894 43.3852 57.803L42.8625 59.2751ZM48.2856 54.6261H49.8538V57.4672H53.3821V54.6261H54.9502V61.8579H53.3821V58.7586H49.8538V61.8579H48.2856V54.6261ZM70.6316 54.6261H75.7281V55.9175H72.1997V57.5963H75.7281V58.8877H72.1997V60.5665H75.7281V61.8579H70.6316V54.6261ZM76.9042 54.6261L78.8905 54.639C80.537 54.639 80.9813 54.6778 81.4126 54.8715C81.7001 55.0006 82.0921 55.2847 82.2881 55.5172C82.5233 55.7755 82.6801 56.137 82.7324 56.5374C82.7716 56.8731 82.7455 57.351 82.6801 57.5963C82.6017 57.8546 82.4057 58.2291 82.2358 58.4357C82.066 58.6424 81.7001 58.9136 81.4126 59.0427C81.0336 59.2106 80.5501 59.2751 78.4723 59.2751V61.8579H76.9042V54.6261ZM78.4723 57.9837C79.7922 57.9837 80.3802 57.9063 80.6285 57.79C80.9421 57.6609 81.112 57.493 81.1643 57.2477C81.2035 57.0539 81.2035 56.7569 81.1643 56.602C81.112 56.4341 80.8899 56.2275 80.6285 56.1112C80.3802 56.0079 79.7922 55.9175 79.3217 55.9175H78.4723V57.9837ZM83.4381 54.6261H85.5551C86.7312 54.6261 87.9073 54.6907 88.1686 54.7553C88.4431 54.8327 88.809 55.0652 88.9919 55.2718C89.1749 55.4914 89.3578 55.8788 89.397 56.15C89.4362 56.4212 89.4101 56.8473 89.3317 57.1185C89.2533 57.3897 89.018 57.7255 88.4039 58.1775L88.822 58.5132C89.0573 58.694 89.3317 59.0427 89.4362 59.2881C89.5538 59.5722 89.593 59.9208 89.5408 60.2437C89.4885 60.5278 89.3578 60.9023 89.2533 61.0573C89.1487 61.2122 88.809 61.4576 88.4953 61.5997C88.0118 61.8192 87.659 61.8579 83.4381 61.8579V54.6261ZM85.0062 57.5963C87.1886 57.5963 87.3976 57.5576 87.6198 57.3381C87.7635 57.196 87.8811 56.9377 87.8811 56.7569C87.8811 56.589 87.7635 56.3178 87.6198 56.1758C87.3976 55.9563 87.1885 55.9175 86.1823 55.9175H85.0062V57.5963ZM85.0062 60.5665C86.7312 60.5665 87.3584 60.502 87.5152 60.4245C87.6851 60.347 87.855 60.205 87.9073 60.1275C87.9595 60.05 88.0118 59.8563 88.0118 59.7013C88.0118 59.5463 87.8942 59.2881 87.7505 59.146C87.5283 58.9265 87.3192 58.8877 86.2477 58.8877H85.0062V60.5665ZM90.4947 54.6261H92.0628L92.1282 59.2106L95.4082 54.6907L97.0286 54.6261V61.8579H95.4605L95.3951 57.1573L91.9975 61.8709L90.4947 61.8579V54.6261ZM77.7144 9.84045C78.8774 9.82754 79.766 9.89211 80.6546 10.0729C81.3603 10.202 82.4319 10.4991 83.046 10.7057C83.6602 10.9252 84.6011 11.3643 85.1369 11.6742C85.6727 11.9971 86.509 12.5782 86.9925 12.9785C87.476 13.366 88.1817 14.0633 88.5607 14.5153C88.9396 14.9802 89.4885 15.7421 89.789 16.2329C90.0765 16.7236 90.5339 17.6405 90.7822 18.2733C91.0436 18.919 91.2788 19.6034 91.4095 20.1458H85.4636L85.0062 19.2806C84.7187 18.7124 84.2091 18.0667 83.5688 17.4339C82.9284 16.8011 82.275 16.3104 81.6739 16.0004C81.1643 15.7421 80.4325 15.4322 80.0405 15.316C79.6484 15.1997 78.8513 15.0706 78.2763 15.0319C77.5576 14.9802 76.9172 15.019 76.2508 15.161C75.715 15.2772 74.7741 15.613 74.1599 15.91C73.2974 16.3233 72.8139 16.6719 72.056 17.421C71.4549 18.015 70.8668 18.764 70.5532 19.3064C70.2788 19.81 69.9521 20.5332 69.8345 20.9206C69.7038 21.321 69.547 22.0958 69.4686 22.664C69.3902 23.3485 69.3902 24.0716 69.4686 24.7948C69.5339 25.4018 69.743 26.3058 69.9129 26.7965C70.0958 27.3001 70.4356 28.0233 70.6578 28.4107C70.893 28.8111 71.5333 29.5601 72.0691 30.1025C72.8139 30.8515 73.3105 31.2131 74.1599 31.6263C74.944 32.0137 75.6235 32.2333 76.4468 32.3753C77.3877 32.5432 77.832 32.5561 78.6683 32.4528C79.2433 32.3753 80.0666 32.1945 80.4978 32.0396C80.9291 31.8846 81.5955 31.5747 82.0006 31.3551C82.3927 31.1227 83.1245 30.5286 83.6341 30.025C84.3006 29.3664 84.7057 28.824 85.725 26.8611H91.5401L91.4617 27.2227C91.4095 27.4164 91.2396 27.9975 91.0697 28.5141C90.8998 29.0306 90.5208 29.8959 90.2464 30.4512C89.972 31.0065 89.3709 31.9363 88.9135 32.5432C88.4561 33.1373 87.6982 33.9508 87.2278 34.3512C86.7573 34.7515 85.934 35.3456 85.3983 35.6684C84.8625 36.0042 83.9477 36.4562 83.3727 36.6886C82.7978 36.9081 81.8307 37.2181 81.2166 37.3601C80.2757 37.5926 79.7268 37.6442 77.7536 37.6313C75.7803 37.6313 75.2446 37.5926 74.4213 37.3601C73.8855 37.2181 72.9707 36.9211 72.3958 36.7015C71.8208 36.482 70.8538 35.9912 70.2396 35.6297C69.4991 35.182 68.6671 34.5018 67.7436 33.5893C66.8202 32.6767 66.1319 31.8545 65.6789 31.1227C65.313 30.5286 64.8164 29.5601 64.6073 28.9919C64.3852 28.4237 64.0716 27.5326 63.9278 26.9902C63.7057 26.2025 63.6534 25.6342 63.6534 23.8263C63.6403 21.915 63.6795 21.4889 63.9539 20.4687C64.1238 19.8359 64.4767 18.8157 64.738 18.2087C64.9994 17.6147 65.5482 16.6203 65.9533 16.0133C66.3584 15.4193 67.1425 14.4637 67.7044 13.9213C68.2794 13.366 69.1157 12.6428 69.5862 12.3199C70.0566 11.9971 70.9583 11.4805 71.6117 11.1706C72.252 10.8607 73.2452 10.4861 73.8071 10.3312C74.369 10.1762 75.1008 10.0083 75.4406 9.95667C75.7803 9.8921 76.7996 9.84045 77.7144 9.84045ZM15.7467 10.3312H37.7007V15.4968H20.9739V20.1458H27.1419C32.9571 20.1458 33.3883 20.1587 34.3684 20.417C34.9434 20.559 35.8189 20.8948 36.3286 21.1531C36.9297 21.4759 37.5961 21.9796 38.2887 22.664C38.9813 23.3614 39.504 24.0071 39.8177 24.6011C40.079 25.1048 40.4188 25.97 40.5625 26.5382C40.7455 27.1968 40.837 27.9717 40.837 28.669C40.837 29.276 40.7455 30.1541 40.6279 30.6061C40.5233 31.071 40.1836 31.9492 39.8961 32.5432C39.4648 33.4214 39.1381 33.8604 38.3018 34.6869C37.4785 35.4876 36.995 35.8492 36.1325 36.2624C35.5184 36.5595 34.6036 36.8952 34.107 36.9985C33.3491 37.1664 31.6895 37.1922 15.7467 37.1922V10.3312ZM20.9739 32.0267C31.3236 32.0396 32.5258 32.0008 33.0616 31.8459C33.4275 31.7426 33.9633 31.4326 34.29 31.1614C34.6036 30.8902 34.9826 30.4382 35.1394 30.1541C35.3354 29.7667 35.4007 29.4051 35.4007 28.669C35.4007 27.9846 35.3354 27.5713 35.1655 27.2485C35.0348 27.0031 34.7343 26.6028 34.5121 26.3703C34.29 26.1379 33.8718 25.815 33.5843 25.6601C33.0747 25.3889 32.9309 25.376 27.0243 25.3501L20.9869 25.3114L20.9739 32.0267ZM40.837 10.3312H63.8363V15.4968H55.2116V37.1922H49.4617V15.4968H40.837V10.3312Z" fill="black"/>
</svg>
